<?xml version="1.0" standalone="no"?>
<!DOCTYPE svg PUBLIC "-//W3C//DTD SVG 20010904//EN"
 "http://www.w3.org/TR/2001/REC-SVG-20010904/DTD/svg10.dtd">
<svg version="1.0" xmlns="http://www.w3.org/2000/svg"
 width="512.000000pt" height="512.000000pt" viewBox="0 0 512.000000 512.000000"
 preserveAspectRatio="xMidYMid meet">

<g transform="translate(0.000000,512.000000) scale(0.100000,-0.100000)"
fill="#000000" stroke="none">
<path d="M1347 4410 c-295 -62 -543 -297 -629 -597 -20 -67 -23 -102 -23 -253
0 -157 2 -181 22 -228 63 -155 197 -245 382 -259 l91 -6 0 -76 c0 -60 5 -84
23 -115 32 -57 87 -97 140 -103 l45 -5 4 -115 c4 -149 8 -153 149 -153 l99 0
0 -140 0 -140 -333 0 -333 0 -52 -26 c-116 -58 -153 -177 -121 -386 26 -167
99 -309 220 -429 l77 -77 -91 -4 c-114 -5 -179 -32 -238 -95 -58 -64 -82 -123
-83 -208 0 -116 62 -217 168 -273 l51 -27 1734 -3 1734 -2 24 22 c23 21 23 22
23 280 l0 259 -25 24 c-21 22 -33 25 -90 25 l-65 0 0 718 0 719 51 33 c54 35
102 100 119 160 6 20 10 188 10 390 0 309 -3 367 -19 447 -66 318 -325 578
-642 643 -90 19 -143 20 -1214 19 -1051 0 -1125 -2 -1208 -19z m2458 -152
c112 -39 198 -92 280 -173 82 -82 135 -168 172 -280 26 -77 27 -91 31 -337 l4
-258 -1601 0 c-1114 0 -1615 3 -1651 11 -72 15 -137 64 -174 129 l-31 55 1
160 c0 146 3 167 27 240 81 243 271 414 522 470 48 11 280 13 1200 12 l1140
-2 80 -27z m-1705 -1252 c0 -102 25 -96 -385 -96 -410 0 -385 -6 -385 96 l0
64 385 0 385 0 0 -64z m1183 -1 c7 -78 36 -147 80 -194 33 -35 118 -81 151
-81 18 0 18 -11 13 -252 -5 -270 -16 -347 -71 -506 -80 -232 -251 -466 -449
-614 l-79 -58 -306 0 -305 0 62 56 c106 97 187 229 225 369 22 79 32 268 17
321 -17 65 -65 122 -124 150 -52 24 -54 24 -379 24 l-328 0 0 140 0 140 94 0
c136 0 140 4 144 154 l4 116 28 0 c42 0 81 17 119 53 47 45 61 84 61 172 l0
75 519 0 518 0 6 -65z m1007 18 c0 -61 -26 -112 -70 -138 -33 -19 -51 -20
-365 -20 -306 0 -332 1 -361 19 -42 25 -64 66 -71 131 l-6 55 437 0 436 0 0
-47z m-2400 -318 l0 -65 -175 0 -175 0 0 58 c0 32 3 62 7 65 3 4 82 7 175 7
l168 0 0 -65z m2220 -695 l0 -710 -471 0 -471 0 94 99 c194 202 317 436 379
720 17 78 22 144 26 349 l5 252 219 0 219 0 0 -710z m-1649 41 c27 -28 29 -34
29 -113 -1 -187 -57 -326 -185 -453 -93 -93 -187 -146 -306 -171 -108 -23
-542 -16 -614 10 -212 75 -360 225 -419 426 -23 78 -32 231 -16 270 26 63 -15
60 768 60 l714 0 29 -29z m1829 -1056 l0 -165 -1662 0 c-1660 0 -1662 0 -1704
21 -120 57 -119 229 1 289 39 20 62 20 1703 20 l1662 0 0 -165z"/>
<path d="M1715 4110 c-82 -27 -148 -79 -195 -151 -101 -157 -74 -360 65 -488
74 -67 145 -94 250 -94 107 -1 176 26 255 100 94 87 134 194 119 324 -13 122
-99 239 -214 293 -80 39 -194 45 -280 16z m220 -144 c89 -41 135 -114 135
-214 0 -217 -256 -318 -407 -160 -59 61 -78 150 -52 239 39 128 198 194 324
135z"/>
<path d="M3550 3563 c-50 -19 -68 -84 -32 -116 16 -15 51 -17 285 -17 263 0
266 0 281 22 21 30 20 61 -3 89 -19 24 -20 24 -268 26 -136 1 -255 -1 -263 -4z"/>
</g>
</svg>
